<?xml version="1.0" standalone="no"?>
<!DOCTYPE svg PUBLIC "-//W3C//DTD SVG 20010904//EN"
 "http://www.w3.org/TR/2001/REC-SVG-20010904/DTD/svg10.dtd">
<svg version="1.0" xmlns="http://www.w3.org/2000/svg"
 width="260.000000pt" height="260.000000pt" viewBox="0 0 260.000000 260.000000"
 preserveAspectRatio="xMidYMid meet">
<metadata>
Created by potrace 1.11, written by Peter Selinger 2001-2013
</metadata>
<g transform="translate(0.000000,260.000000) scale(0.100000,-0.100000)"
fill="#000000" stroke="none">
<path d="M1244 2181 c-3 -3 -10 -6 -17 -7 -53 -8 -76 -13 -99 -23 -16 -6 -28
-8 -28 -6 0 4 -57 -30 -95 -57 -116 -83 -325 -276 -325 -300 0 -4 -8 -16 -17
-26 -25 -25 -70 -111 -92 -174 -19 -55 -23 -201 -7 -263 11 -45 66 -152 92
-180 13 -14 20 -25 16 -25 -9 0 114 -118 153 -147 17 -13 42 -32 57 -43 20
-15 25 -26 21 -43 -12 -47 -10 -262 3 -309 7 -27 13 -51 13 -53 3 -18 34 -81
51 -102 27 -34 81 -74 91 -67 5 3 9 2 9 -3 0 -10 37 -15 127 -17 112 -2 131
28 108 163 -11 67 -12 277 -1 288 3 3 32 7 63 8 219 10 409 93 518 227 22 27
46 56 53 63 6 7 12 16 12 18 0 2 10 26 22 53 13 27 23 54 24 59 1 6 3 12 4 15
27 73 9 202 -39 280 -35 57 -86 111 -117 126 -19 9 -34 20 -34 25 0 5 -6 9
-13 9 -8 0 -28 7 -44 15 -56 28 -187 57 -274 60 -153 7 -247 -30 -342 -135
-67 -75 -144 -225 -162 -319 -2 -9 -4 -17 -5 -18 -6 -7 -25 -115 -22 -125 1
-5 -3 -8 -8 -8 -6 0 -10 8 -11 18 0 9 -3 35 -6 57 -7 44 -8 243 -1 290 2 17 7
36 11 43 5 6 6 12 3 12 -3 0 2 16 10 35 8 19 14 36 13 37 -3 5 41 87 71 132
45 67 131 148 192 181 52 28 139 54 168 50 71 -11 103 -18 156 -30 34 -8 74
-16 88 -19 41 -7 129 -53 165 -86 18 -17 36 -30 42 -30 5 0 9 -4 9 -8 0 -10
65 -42 85 -42 29 0 24 64 -10 135 -17 36 -80 104 -97 105 -4 0 -13 6 -20 13
-30 31 -157 97 -213 112 -64 17 -139 29 -192 29 -18 1 -33 3 -33 6 0 6 -120 7
-126 1z m373 -693 c12 -59 -3 -162 -33 -224 -43 -92 -125 -169 -217 -203 l-28
-11 6 52 c3 28 8 55 11 60 3 5 7 20 10 34 6 30 50 123 89 184 29 46 130 150
145 150 5 0 13 -19 17 -42z"/>
</g>
</svg>
